<?xml version="1.0" encoding="UTF-8"?>
<svg width="285px" height="82px" viewBox="0 0 285 82" version="1.1" xmlns="http://www.w3.org/2000/svg" xmlns:xlink="http://www.w3.org/1999/xlink">
    <!-- Generator: Sketch 55.2 (78181) - https://sketchapp.com -->
    <title>Logo</title>
    <desc>Created with Sketch.</desc>
    <g id="Home" stroke="none" stroke-width="1" fill="none" fill-rule="evenodd">
        <g id="1.1-Home-Page-Login" transform="translate(-200.000000, -56.000000)">
            <g id="Logo" transform="translate(200.000000, 56.000000)">
                <g id="Logo-Icon">
                    <g id="Group-5" fill="#FFFFFF">
                        <g id="Group-4" transform="translate(31.000000, 32.500000) rotate(360.000000) translate(-31.000000, -32.500000) ">
                            <path d="M31.3732582,29.6138748 C31.3732582,27.4020915 33.1577392,25.6090869 35.3705377,25.6090869 L61.7106423,25.6090869 L61.7106423,35.3861252 C61.7106423,37.5979085 59.9261613,39.3909131 57.7133628,39.3909131 L35.3705377,39.3909131 C33.1629012,39.3909131 31.3732582,37.6033089 31.3732582,35.3861252 L31.3732582,29.6138748 Z" id="Rectangle-3" style="mix-blend-mode: screen;"></path>
                            <path d="M20.2056193,14.1266 C20.2056193,11.9148167 21.9901002,10.1218121 24.2028987,10.1218121 L50.5430033,10.1218121 L50.5430033,19.8988504 C50.5430033,22.1106337 48.7585223,23.9036383 46.5457239,23.9036383 L24.2028987,23.9036383 C21.9952622,23.9036383 20.2056193,22.1160341 20.2056193,19.8988504 L20.2056193,14.1266 Z" id="Rectangle-3" style="mix-blend-mode: screen;" transform="translate(35.374311, 17.012725) rotate(-72.000000) translate(-35.374311, -17.012725) "></path>
                            <path d="M2.02652752,20.0651007 C2.02652752,17.8533174 3.8110085,16.0603128 6.023807,16.0603128 L32.3639116,16.0603128 L32.3639116,25.8373511 C32.3639116,28.0491344 30.5794306,29.842139 28.3666321,29.842139 L6.023807,29.842139 C3.8161705,29.842139 2.02652752,28.0545348 2.02652752,25.8373511 L2.02652752,20.0651007 Z" id="Rectangle-3" style="mix-blend-mode: screen;" transform="translate(17.195220, 22.951226) rotate(216.000000) translate(-17.195220, -22.951226) "></path>
                            <path d="M2.0407527,39.2139725 C2.0407527,37.0021893 3.82523368,35.2091846 6.03803217,35.2091846 L32.3781368,35.2091846 L32.3781368,44.9862229 C32.3781368,47.1980062 30.5936558,48.9910108 28.3808573,48.9910108 L6.03803217,48.9910108 C3.83039568,48.9910108 2.0407527,47.2034066 2.0407527,44.9862229 L2.0407527,39.2139725 Z" id="Rectangle-3" style="mix-blend-mode: screen;" transform="translate(17.209445, 42.100098) rotate(144.000000) translate(-17.209445, -42.100098) "></path>
                            <path d="M20.2039367,45.2190024 C20.2039367,43.0072191 21.9884177,41.2142145 24.2012161,41.2142145 L50.5413207,41.2142145 L50.5413207,50.9912528 C50.5413207,53.2030361 48.7568398,54.9960407 46.5440413,54.9960407 L24.2012161,54.9960407 C21.9935797,54.9960407 20.2039367,53.2084365 20.2039367,50.9912528 L20.2039367,45.2190024 Z" id="Rectangle-3" style="mix-blend-mode: screen;" transform="translate(35.372629, 48.105128) rotate(72.000000) translate(-35.372629, -48.105128) "></path>
                        </g>
                    </g>
                    <g id="Group-5" opacity="0.6">
                        <g id="Group-4" transform="translate(31.000000, 32.500000) rotate(360.000000) translate(-31.000000, -32.500000) ">
                            <path d="M31.3732582,29.6138748 C31.3732582,27.4020915 33.1577392,25.6090869 35.3705377,25.6090869 L61.7106423,25.6090869 L61.7106423,35.3861252 C61.7106423,37.5979085 59.9261613,39.3909131 57.7133628,39.3909131 L35.3705377,39.3909131 C33.1629012,39.3909131 31.3732582,37.6033089 31.3732582,35.3861252 L31.3732582,29.6138748 Z" id="Rectangle-3" fill="#FF7A00" style="mix-blend-mode: multiply;"></path>
                            <path d="M20.2056193,14.1266 C20.2056193,11.9148167 21.9901002,10.1218121 24.2028987,10.1218121 L50.5430033,10.1218121 L50.5430033,19.8988504 C50.5430033,22.1106337 48.7585223,23.9036383 46.5457239,23.9036383 L24.2028987,23.9036383 C21.9952622,23.9036383 20.2056193,22.1160341 20.2056193,19.8988504 L20.2056193,14.1266 Z" id="Rectangle-3" fill="#00C3FF" style="mix-blend-mode: multiply;" transform="translate(35.374311, 17.012725) rotate(-72.000000) translate(-35.374311, -17.012725) "></path>
                            <path d="M2.02652752,20.0651007 C2.02652752,17.8533174 3.8110085,16.0603128 6.023807,16.0603128 L32.3639116,16.0603128 L32.3639116,25.8373511 C32.3639116,28.0491344 30.5794306,29.842139 28.3666321,29.842139 L6.023807,29.842139 C3.8161705,29.842139 2.02652752,28.0545348 2.02652752,25.8373511 L2.02652752,20.0651007 Z" id="Rectangle-3" fill="#71C100" style="mix-blend-mode: multiply;" transform="translate(17.195220, 22.951226) rotate(216.000000) translate(-17.195220, -22.951226) "></path>
                            <path d="M2.0407527,39.2139725 C2.0407527,37.0021893 3.82523368,35.2091846 6.03803217,35.2091846 L32.3781368,35.2091846 L32.3781368,44.9862229 C32.3781368,47.1980062 30.5936558,48.9910108 28.3808573,48.9910108 L6.03803217,48.9910108 C3.83039568,48.9910108 2.0407527,47.2034066 2.0407527,44.9862229 L2.0407527,39.2139725 Z" id="Rectangle-3" fill="#FFDE00" style="mix-blend-mode: multiply;" transform="translate(17.209445, 42.100098) rotate(144.000000) translate(-17.209445, -42.100098) "></path>
                            <path d="M20.2039367,45.2190024 C20.2039367,43.0072191 21.9884177,41.2142145 24.2012161,41.2142145 L50.5413207,41.2142145 L50.5413207,50.9912528 C50.5413207,53.2030361 48.7568398,54.9960407 46.5440413,54.9960407 L24.2012161,54.9960407 C21.9935797,54.9960407 20.2039367,53.2084365 20.2039367,50.9912528 L20.2039367,45.2190024 Z" id="Rectangle-3" fill="#FF5083" style="mix-blend-mode: multiply;" transform="translate(35.372629, 48.105128) rotate(72.000000) translate(-35.372629, -48.105128) "></path>
                        </g>
                    </g>
                </g>
                <text id="sharedspace" font-family="Lato-Light, Lato" font-size="41" font-weight="300" fill="#4A4A4A">
                    <tspan x="62" y="75">shared</tspan>
                    <tspan x="181.3715" y="75" font-family=".SFNSDisplay, .SF NS Display" font-weight="normal">space</tspan>
                </text>
            </g>
        </g>
    </g>
</svg>